PathFileType	4	(X/Y/Z)	1H_rest_fast_right.trc
DataRate	CameraRate	NumFrames	NumMarkers	Units	OrigDataRate	OrigDataStartFrame	OrigNumFrames
250.00	250.00	7	18	mm	250.00	14540	29078
Frame#	Time	c7	r_should	l_should	clavicle	r_upa	r_elb_l	r_elb_m	r_low	r_wri_l	r_wri_m	r_met	l_upa	l_elb_l	l_elb_m	l_low	l_wri_l	l_wri_m	l_met
	X1	Y1	Z1	X2	Y2	Z2	X3	Y3	Z3	X4	Y4	Z4	X5	Y5	Z5	X6	Y6	Z6	X7	Y7	Z7	X8	Y8	Z8	X9	Y9	Z9	X10	Y10	Z10	X11	Y11	Z11	X12	Y12	Z12	X13	Y13	Z13	X14	Y14	Z14	X15	Y15	Z15	X16	Y16	Z16	X17	Y17	Z17	X18	Y18	Z18
14540	58.15600	629.67029	1420.04089	268.58920	700.77716	1364.04614	408.14288	670.81860	1378.20459	92.59264	761.47473	1284.65833	241.24390	723.27338	1168.14832	495.40262	720.16309	1091.69446	518.45325	660.63361	1054.09839	477.99631	815.17419	1017.14301	418.97791	844.04681	1004.86884	355.87759	823.02826	935.61786	371.71286	922.40253	977.22870	324.84061	676.92401	1184.19531	22.48868	693.67523	1074.70679	20.88502	631.17792	1041.19055	76.95492	729.93622	908.03613	29.19178	755.71844	836.09802	63.57799	689.17908	814.28595	42.69629	783.23322	748.81451	40.65066
14541	58.16000	629.67749	1420.03638	268.59479	700.55347	1364.05005	408.17587	670.91058	1378.17847	92.62798	761.51263	1284.65649	241.33817	723.23944	1168.22913	495.45630	720.19385	1091.96838	518.45660	660.67798	1054.26587	478.00311	815.03589	1018.61725	418.51938	844.01868	1007.42767	355.18967	823.47559	937.94574	370.57504	922.48859	980.30701	323.52130	677.04706	1184.14355	22.58610	693.78149	1074.64978	21.01652	631.29944	1041.16187	77.11057	730.06195	907.99054	29.39486	755.89136	836.12292	63.80590	689.32086	814.27490	42.93953	783.37158	748.76306	40.94997
14542	58.16400	629.69006	1420.03491	268.61288	700.33514	1364.03894	408.19968	671.00916	1378.14783	92.66208	761.54626	1284.65771	241.42998	723.20654	1168.29529	495.50836	720.22150	1092.22205	518.45374	660.76123	1054.47424	477.99731	815.34650	1020.39777	418.35776	844.21484	1010.12408	354.49820	823.97101	940.27972	369.25262	922.56976	983.38593	322.24335	677.17542	1184.09668	22.68775	693.89624	1074.59619	21.14638	631.43597	1041.14844	77.27200	730.19159	907.95398	29.59578	756.06189	836.13690	64.05668	689.47131	814.27087	43.19833	783.50580	748.71960	41.24205
14543	58.16800	629.70343	1420.03394	268.63806	700.11682	1364.03369	408.23517	671.11414	1378.13428	92.69644	761.58228	1284.65906	241.52562	723.17792	1168.34985	495.55298	720.24847	1092.45544	518.43896	660.89331	1054.72241	477.96817	816.31256	1022.65002	418.50259	844.64771	1012.96857	353.82574	824.39746	942.50830	367.87894	922.62714	986.47058	320.98438	677.30823	1184.05847	22.78549	694.01764	1074.55103	21.27714	631.56506	1041.14807	77.41940	730.32428	907.92596	29.79577	756.21173	836.13208	64.30632	689.61896	814.26752	43.45298	783.63721	748.69269	41.52125
14544	58.17200	629.71967	1420.03125	268.65680	699.90778	1364.02161	408.27185	671.21655	1378.12427	92.73141	761.61682	1284.66064	241.61617	723.15033	1168.39551	495.58023	720.27539	1092.67493	518.41791	660.92529	1054.89038	477.89264	817.00732	1024.75195	418.13278	844.64319	1015.52594	353.14459	824.77106	944.61774	366.55707	922.68365	989.55756	319.73029	677.44592	1184.03015	22.87921	694.14215	1074.51770	21.40923	631.67560	1041.14160	77.53841	730.45740	907.89661	30.00154	756.34454	836.12677	64.52947	689.75244	814.25165	43.68289	783.76404	748.68024	41.78529
14545	58.17600	629.73914	1420.03284	268.66809	699.69971	1364.00330	408.30267	671.32166	1378.11169	92.76452	761.66150	1284.66309	241.69576	723.12805	1168.42603	495.59140	720.31555	1092.88184	518.38513	660.90979	1055.00464	477.78464	818.06006	1027.05078	417.65472	844.53552	1017.97461	352.49442	825.15326	946.73431	365.29004	922.73987	992.63977	318.49899	677.58069	1184.00635	22.96910	694.27252	1074.48987	21.54051	631.77032	1041.11572	77.63585	730.59625	907.86853	30.20415	756.45123	836.11346	64.73605	689.86963	814.22357	43.87030	784.01666	748.56470	42.13023
14546	58.18000	629.75995	1420.03699	268.67706	699.48901	1363.97852	408.33054	671.42194	1378.10034	92.80856	761.70972	1284.66870	241.77019	723.11584	1168.44580	495.58704	720.37097	1093.07642	518.33173	660.88147	1055.06226	477.64453	818.33838	1028.90942	417.10312	844.38678	1020.38599	351.84134	825.52325	948.91199	364.10641	922.79608	995.71912	317.30502	677.70752	1183.97437	23.05656	694.40588	1074.46289	21.67235	631.86267	1041.06812	77.72833	730.72876	907.84186	30.40235	756.54376	836.10236	64.91886	689.98047	814.18054	44.04853	784.43707	748.38855	42.51266
